<svg width="24" height="24" fill="none" xmlns="http://www.w3.org/2000/svg"><path d="M18.087 12.614l.904-4.955a.571.571 0 00-.134-.481.584.584 0 00-.452-.215H6.46L6.096 4.97A1.185 1.185 0 004.933 4h-1.34a.592.592 0 000 1.185h1.34l2.03 11.185a2.074 2.074 0 103.243.666h3.956a2.075 2.075 0 101.873-1.185H8.073l-.325-1.778h8.591a1.778 1.778 0 001.748-1.459zM9.22 17.925a.889.889 0 11-1.777 0 .889.889 0 011.777 0zm7.703 0a.89.89 0 11-1.779 0 .89.89 0 011.78 0zM6.674 8.148h11.02l-.77 4.252a.593.593 0 01-.585.488H7.533l-.86-4.74z" fill="#fff"/></svg>