<svg width="112" height="40" fill="none" xmlns="http://www.w3.org/2000/svg"><path fill-rule="evenodd" clip-rule="evenodd" d="M108.367 20.638c-3.336.661-6.549 2.526-9.247 4.835-.066-2.053-.247-5.278-.247-5.278a.62.62 0 00-.18-.404.638.638 0 00-1.075.31s-.321 1.498-.905 2.696c-.175.36-.371.691-.597.931-.128.136-.252.254-.407.254-.424 0-.553-.37-.6-.77-.072-.623.092-1.376.364-1.897a.619.619 0 00-.273-.842.635.635 0 00-.757.147.53.53 0 00-.047.039c-.788.95-2.004 2.276-3.433 3.093-.876.5-1.833.812-2.82.665-.402-.059-.669-.382-.918-.745-.348-.509-.63-1.126-.93-1.637-.58-.993-1.295-1.576-2.243-1.3-.313.09-.709.43-1.052.924-.111.164-.226.34-.332.523-.247-.6-.643-1.19-1.244-1.566a.638.638 0 00-.715.027.626.626 0 00-.095.046c-2.949 2.238-5.515 3.665-7.487 4.305-1.172.382-2.104.491-2.743.266-.47-.167-.785-.416-.98-.715a.59.59 0 00.16-.12c.568-.576.98-.81 1.35-1.03.464-.278.872-.538 1.37-1.19.288-.374.523-1.099.433-1.729-.073-.511-.337-.958-.848-1.203-.419-.2-.922-.183-1.44.064-.406.194-.835.546-1.222.994a.633.633 0 00-.131.092c-.696.727-1.979 2.16-3.575 3.152-1.464.909-3.207 1.457-4.984.523-.345-.182-.6-.525-.808-.972a4.614 4.614 0 01-.193-.491c.19-.281.354-.579.49-.89 2.002-5.2 3.27-9.239 3.949-12.231.635-2.805.747-4.73.49-5.857-.239-1.054-.799-1.548-1.482-1.649-.388-.058-.846.1-1.28.57-.617.671-1.304 2.132-1.913 4.024-1.356 4.23-2.397 10.658-1.845 14.69.05.379.122.754.215 1.124-.32.43-.729.891-1.176 1.24-.479.374-.996.658-1.5.403-.129-.065-.191-.198-.232-.347-.069-.25-.063-.551-.007-.856a2.92 2.92 0 01.508-1.184l.221-.255c.243-.236.538-.392.886-.332a.643.643 0 00.646-.28.623.623 0 00-.015-.694.634.634 0 00-.41-.258c-.618-.11-1.18.055-1.66.389a.616.616 0 00-.252.174c-.032.04-.07.083-.104.123a3.293 3.293 0 00-.313.365c-.772.879-1.818 1.92-3.019 2.606-.875.5-1.833.811-2.82.665-.401-.059-.668-.382-.918-.746-.348-.509-.629-1.125-.929-1.637-.581-.993-1.296-1.575-2.244-1.3-.312.09-.708.431-1.052.924a7.72 7.72 0 00-.332.524c-.246-.6-.643-1.19-1.244-1.566a.635.635 0 00-.795.093c-.012.011-.028.015-.04.026-.878.863-2.846 3.32-6.078 2.528-.518-.127-1.114-.54-1.614-1.051-.5-.511-.9-1.113-.987-1.684a.623.623 0 00-.201-.372.64.64 0 00-1.042.313s-.45 1.787-1.24 2.969c-.179.268-.373.505-.591.662-.2.145-.426.196-.672.06a.898.898 0 01-.07-.109 1.448 1.448 0 01-.125-.43c-.124-.842.252-2.077 1.796-2.299a.64.64 0 00.417-.245.619.619 0 00-.13-.876.64.64 0 00-.47-.117 4.11 4.11 0 00-.946.249.668.668 0 00-.13.013c-2.19.676-5.114.909-9.075.842.509-9.363.701-18.483.501-20.385a.624.624 0 00-.231-.421.642.642 0 00-.894.091.62.62 0 00-.138.46c.199 1.887.004 10.934-.505 20.224-1.9-.06-4.014-.179-6.386-.348-2.015-.144-3.718-.114-5.16.035.298-5.82.989-13.636 2.574-18.815a.618.618 0 00-.207-.666.639.639 0 00-.703-.067.634.634 0 00-.308.372C7.09 6.759 6.387 14.852 6.09 20.776c-3.372.577-5.048 1.874-5.944 2.941a.62.62 0 00.084.881.64.64 0 00.894-.083c.767-.913 2.179-1.946 4.908-2.461a154.527 154.527 0 00-.149 5.748.618.618 0 00.185.443.634.634 0 00.448.184.644.644 0 00.45-.182.625.625 0 00.187-.441c.003-.983.034-3.161.156-5.937 1.405-.16 3.087-.2 5.127-.055 2.374.17 4.495.285 6.408.344-.29 5.038-.672 10.057-1.133 13.956a.62.62 0 00.133.46.637.637 0 00.891.103.623.623 0 00.237-.418c.464-3.93.848-8.991 1.14-14.07 3.082.051 5.562-.076 7.568-.43a3.517 3.517 0 00-.216 1.801c.104.704.45 1.232.802 1.433.92.526 1.752.256 2.45-.455.594-.607 1.073-1.593 1.406-2.435.183.26.386.504.609.732.68.697 1.517 1.226 2.222 1.398 3.426.84 5.704-1.274 6.893-2.468.176.219.315.464.41.726.16.426.252.873.278 1.326a.62.62 0 00.151.387.638.638 0 00.781.147.629.629 0 00.286-.305s.494-1.158 1.029-1.92c.086-.129.184-.249.291-.36.03-.028.063-.055.096-.08.151-.036.263.054.37.166.254.268.464.673.689 1.092.332.623.684 1.277 1.131 1.739.374.386.812.65 1.334.726 1.274.188 2.517-.176 3.645-.819.56-.325 1.089-.7 1.58-1.121.049.764.379 1.41.956 1.703.942.479 1.972.168 2.87-.535a6.76 6.76 0 00.887-.846c.332.655.762 1.14 1.28 1.411 1.797.945 3.572.738 5.157.023 1.044-.471 1.994-1.17 2.81-1.875-.101 1.284.43 2.506 2.068 3.087.83.294 2.048.24 3.57-.253 1.993-.648 4.574-2.054 7.525-4.252.209.236.37.509.475.804.157.426.25.873.274 1.326a.622.622 0 00.151.387.638.638 0 00.781.147.63.63 0 00.286-.306s.495-1.157 1.029-1.92a2.64 2.64 0 01.291-.359 1.21 1.21 0 01.096-.08c.152-.036.263.054.37.166.254.268.464.672.688 1.091.333.623.686 1.278 1.132 1.74.374.386.812.649 1.334.726 1.274.188 2.517-.177 3.645-.82.82-.467 1.576-1.084 2.236-1.714.01.258.05.515.123.764.244.8.8 1.348 1.752 1.35.662 0 1.297-.472 1.786-1.237.097-.154.19-.318.277-.492.055 1.204.103 2.436.103 3.096-2.74 2.636-4.807 5.655-5.704 8.092-.427 1.162-.592 2.204-.479 3.028.134.983.636 1.702 1.526 2.067 1.197.491 2.43.158 3.467-1.313 1.246-1.766 2.238-5.41 2.448-11.362 2.69-2.491 6.016-4.562 9.486-5.25a.635.635 0 00.392-.27.616.616 0 00.089-.464.629.629 0 00-.264-.393.644.644 0 00-.468-.1l.005.002zm-49.26-.113c-.361-3.898.624-9.676 1.866-13.545.465-1.449.96-2.625 1.44-3.31.085-.127.186-.245.299-.35a.886.886 0 01.092-.065c.125.037.205.155.277.314.1.225.16.518.192.88.22 2.472-.964 7.642-4.166 16.077zm10.728 1.052c.286-.432.625-.797.967-1.017.096-.065.202-.116.313-.151a.267.267 0 01.192-.01c.148.07.155.238.154.39-.004.254-.085.517-.197.662-.368.48-.674.669-1.016.873-.371.21-.723.451-1.052.722a4.38 4.38 0 01.639-1.47zm25.806 16.186c-.595.843-1.25 1.154-1.938.873-.457-.187-.688-.574-.756-1.078-.091-.665.07-1.5.415-2.435.739-2.01 2.32-4.442 4.435-6.686-.276 4.792-1.083 7.803-2.156 9.326zm16.33-17.238c-.065-.218-.23-.447-.613-.451-.077 0-.398.082-.472.102a.625.625 0 00-.416.179.607.607 0 00.374 1.037c.063.007.8-.04.965-.23.256-.297.191-.539.162-.637z" fill="#000"/></svg>