<svg width="100" height="100" fill="none" xmlns="http://www.w3.org/2000/svg"><g filter="url(#filter0_d_66_1011)" clip-path="url(#clip0_66_1011)"><path d="M50 10.938A39.063 39.063 0 1089.063 50 39.14 39.14 0 0050 10.937zm0 75A35.937 35.937 0 1185.938 50 35.977 35.977 0 0150 85.938zM63.36 48.71l-18.75-12.5a1.562 1.562 0 00-1.602-.078 1.524 1.524 0 00-.82 1.367v25a1.524 1.524 0 00.82 1.367c.23.12.483.186.742.196.309.005.61-.09.86-.274l18.75-12.5a1.525 1.525 0 000-2.578zM45.312 59.57V40.43L59.687 50l-14.374 9.57z" fill="#fff"/></g><defs><clipPath id="clip0_66_1011"><path fill="#fff" d="M0 0h100v100H0z"/></clipPath><filter id="filter0_d_66_1011" x=".937" y=".938" width="98.125" height="98.125" filterUnits="userSpaceOnUse" color-interpolation-filters="sRGB"><feFlood flood-opacity="0" result="BackgroundImageFix"/><feColorMatrix in="SourceAlpha" values="0 0 0 0 0 0 0 0 0 0 0 0 0 0 0 0 0 0 127 0" result="hardAlpha"/><feOffset/><feGaussianBlur stdDeviation="5"/><feComposite in2="hardAlpha" operator="out"/><feColorMatrix values="0 0 0 0 0 0 0 0 0 0 0 0 0 0 0 0 0 0 0.25 0"/><feBlend in2="BackgroundImageFix" result="effect1_dropShadow_66_1011"/><feBlend in="SourceGraphic" in2="effect1_dropShadow_66_1011" result="shape"/></filter></defs></svg>