<svg width="101" height="100" fill="none" xmlns="http://www.w3.org/2000/svg"><path opacity=".1" d="M65.352 34.146L54.955 23.902 44.56 34.146l-6.93-6.829 10.396-10.244L37.629 6.83 44.559 0l10.396 10.244L65.352 0l6.93 6.83-10.396 10.243 10.396 10.244-6.93 6.83zM30.203 80.488c5.445 0 9.901 4.39 9.901 9.756 0 5.366-4.456 9.756-9.901 9.756-5.446 0-9.901-4.39-9.901-9.756 0-5.366 4.455-9.756 9.901-9.756zm49.505 0c5.445 0 9.9 4.39 9.9 9.756 0 5.366-4.455 9.756-9.9 9.756-5.446 0-9.901-4.39-9.901-9.756 0-5.366 4.455-9.756 9.9-9.756zm-48.515-15.61c0 .488.495.976.99.976H89.61v9.756H30.203c-5.446 0-9.901-4.39-9.901-9.756 0-1.952.495-3.415.99-4.878l6.436-11.708L10.4 12.195H.5V2.44h16.337l21.287 43.903h34.653l19.307-34.147 8.416 4.878L81.193 51.22c-1.485 2.927-4.95 4.879-8.416 4.879H35.648l-4.455 7.804v.976z" fill="#777"/></svg>