<?xml version="1.0" encoding="UTF-8"?> <svg xmlns="http://www.w3.org/2000/svg" width="20" height="20" fill="none"><path d="M10.008 5.156a2.969 2.969 0 100 5.938 2.969 2.969 0 000-5.938zm0 5a2.031 2.031 0 112.031-2.031 2.04 2.04 0 01-2.031 2.031zm0-8.75a6.727 6.727 0 00-6.719 6.719c0 2.414 1.125 4.977 3.242 7.414a19.36 19.36 0 003.211 2.969.47.47 0 00.266.086.517.517 0 00.273-.086 19.859 19.859 0 003.203-2.969c2.125-2.437 3.243-5 3.243-7.414a6.727 6.727 0 00-6.72-6.719zm0 16.133c-1.172-.906-5.781-4.758-5.781-9.414a5.781 5.781 0 0111.562 0c0 4.656-4.61 8.508-5.781 9.414z" fill="#777"></path></svg> 