<?xml version="1.0" encoding="UTF-8"?> <svg xmlns="http://www.w3.org/2000/svg" width="20" height="20" fill="none"><path d="M13.942 1.72H6.058a1.988 1.988 0 00-1.866 2.084v12.392a1.988 1.988 0 001.866 2.083h7.884a1.988 1.988 0 001.866-2.083V3.804a1.988 1.988 0 00-1.866-2.083zm1.033 14.476a1.16 1.16 0 01-1.033 1.25H6.058a1.159 1.159 0 01-1.033-1.25V3.804a1.16 1.16 0 011.033-1.25h1.275v.425a.833.833 0 00.834.833h3.666a.833.833 0 00.834-.833v-.425h1.275a1.16 1.16 0 011.033 1.25v12.392z" fill="#777"></path><path d="M8.333 15.778h3.334a.416.416 0 100-.833H8.333a.416.416 0 100 .833z" fill="#777"></path></svg> 